<svg width="48" height="48" viewBox="0 0 48 48" fill="none" xmlns="http://www.w3.org/2000/svg">
<path d="M38 4.02002H12C9.588 4.02002 6 5.61802 6 10.02V38.02C6 42.422 9.588 44.02 12 44.02H42V40.02H12.024C11.1 39.996 10 39.63 10 38.02C10 37.818 10.018 37.638 10.048 37.474C10.272 36.324 11.214 36.04 12.022 36.02H40C40.036 36.02 40.062 36.002 40.098 36H42V8.02002C42 5.81402 40.206 4.02002 38 4.02002ZM38 32.02H10V10.02C10 8.40802 11.1 8.04402 12 8.02002H26V22.02L30 20.02L34 22.02V8.02002H38V32.02Z" fill="black"/>
</svg>
